<svg width="36" height="36" viewBox="0 0 36 36" fill="none" xmlns="http://www.w3.org/2000/svg">
<rect x="0.3" y="0.3" width="35.4" height="35.4" rx="17.7" fill="white" stroke="#E8E8E8" stroke-width="0.6"/>
<path d="M26.4 18.0463L24.7712 17.1372L26.4 16.2281C26.7261 16.0626 27.0023 15.7979 27.1959 15.4652C27.3895 15.1325 27.4924 14.7457 27.4924 14.3507C27.4924 13.9557 27.3895 13.5689 27.1959 13.2362C27.0023 12.9035 26.7261 12.6388 26.4 12.4733L19.0214 8.35245C18.7049 8.17596 18.355 8.08398 18.0001 8.08398C17.6452 8.08398 17.2953 8.17596 16.9787 8.35245L9.60011 12.4733C9.27401 12.6388 8.99782 12.9035 8.80423 13.2362C8.61064 13.5689 8.50776 13.9557 8.50776 14.3507C8.50776 14.7457 8.61064 15.1325 8.80423 15.4652C8.99782 15.7979 9.27401 16.0626 9.60011 16.2281L11.229 17.1372L9.60137 18.0449C9.27413 18.2084 8.99662 18.4722 8.80201 18.8046C8.6074 19.137 8.50391 19.5241 8.50391 19.9194C8.50391 20.3148 8.6074 20.7019 8.80201 21.0343C8.99662 21.3667 9.27413 21.6304 9.60137 21.794L16.9686 25.9079C17.2869 26.0926 17.6414 26.1891 18.0013 26.1892C18.3562 26.1895 18.7059 26.0949 19.0202 25.9135L26.3975 21.7926C26.7248 21.6293 27.0024 21.3657 27.1971 21.0334C27.3918 20.7011 27.4954 20.3141 27.4954 19.9187C27.4954 19.5234 27.3918 19.1364 27.1971 18.8041C27.0024 18.4718 26.7248 18.2082 26.3975 18.0449L26.4 18.0463ZM9.7735 14.3514C9.7785 14.2145 9.81874 14.0821 9.88955 13.9694C9.96036 13.8568 10.0588 13.7686 10.1734 13.7152L17.552 9.59428C17.691 9.51825 17.8442 9.47869 17.9994 9.47869C18.1547 9.47869 18.3078 9.51825 18.4468 9.59428L25.8254 13.7152C25.9432 13.7637 26.0447 13.8506 26.1164 13.9643C26.188 14.078 26.2264 14.213 26.2264 14.3514C26.2264 14.4897 26.188 14.6248 26.1164 14.7385C26.0447 14.8522 25.9432 14.9391 25.8254 14.9876L18.4468 19.1085C18.3079 19.1849 18.1547 19.2247 17.9994 19.2247C17.8441 19.2247 17.6909 19.1849 17.552 19.1085L10.1734 14.9876C10.0588 14.9342 9.96036 14.846 9.88955 14.7333C9.81874 14.6207 9.7785 14.4882 9.7735 14.3514ZM25.8267 20.5522L18.4392 24.6772C18.3023 24.7556 18.1501 24.7962 17.9958 24.7955C17.8415 24.7947 17.6896 24.7527 17.5533 24.6731L10.1734 20.5522C10.055 20.5053 9.95262 20.4194 9.88024 20.3062C9.80786 20.1929 9.76902 20.0579 9.76902 19.9194C9.76902 19.781 9.80786 19.6459 9.88024 19.5327C9.95262 19.4195 10.055 19.3335 10.1734 19.2867L12.6287 17.9196L16.98 20.3503C17.2964 20.5264 17.6461 20.6181 18.0007 20.6181C18.3553 20.6181 18.705 20.5264 19.0214 20.3503L23.3726 17.9196L25.828 19.2881C25.9459 19.3354 26.0478 19.4214 26.1197 19.5346C26.1916 19.6478 26.2301 19.7825 26.23 19.9206C26.2298 20.0587 26.1911 20.1934 26.1189 20.3064C26.0468 20.4194 25.9447 20.5052 25.8267 20.5522Z" fill="black"/>
</svg>
